<?xml version="1.0" encoding="UTF-8"?>
<svg id="logo" xmlns="http://www.w3.org/2000/svg" viewBox="0 0 196 63.7">
  <rect y="0" width="250" height="90" fill="#fc0"/> 
  <g>
    <g>
      <g>
        <polygon points="0 29.9011 26.5058 29.9011 25.0581 31.8714 0 31.8714 0 29.9011 0 29.9011" fill="#d40511"/>
        <polygon points="0 26.2454 29.1986 26.2454 27.7483 28.213 0 28.213 0 26.2454 0 26.2454" fill="#d40511"/>
        <polygon points="0 33.5595 23.8146 33.5595 22.3733 35.5163 0 35.5163 0 33.5595 0 33.5595" fill="#d40511"/>
      </g>
      <g>
        <polygon points="196 31.8714 169.5976 31.8714 171.0446 29.9024 196 29.9024 196 31.8714 196 31.8714" fill="#d40511"/>
        <polygon points="196 35.5163 166.9128 35.519 168.3537 33.5595 196 33.5595 196 35.5163 196 35.5163" fill="#d40511"/>
        <polygon points="173.7354 26.2454 196 26.2454 196 28.2143 172.287 28.2157 173.7354 26.2454 173.7354 26.2454" fill="#d40511"/>
      </g>
    </g>
    <g>
      <path d="m25.6726,35.5163l12.578-17.0888h15.6082c1.7252,0,1.7026.655.8595,1.7975-.8562,1.16-2.3134,3.1547-3.1854,4.3323-.4426.5982-1.2431,1.6881,1.4089,1.6881h20.9101c-1.739,2.3822-7.3796,9.2709-17.5083,9.2709h-30.671Z" fill="#d40511"/>
      <path d="m97.7056,26.244l-6.8202,9.2723h-17.9924s6.8172-9.2709,6.8233-9.2709l17.9893-.0014h0Z" fill="#d40511"/>
      <path d="m123.7239,26.2454l-6.8239,9.2709h-17.9856s6.8178-9.2709,6.8239-9.2709h17.9856Z" fill="#d40511"/>
      <path d="m129.5749,26.2454c.0006,0-1.314,1.7975-1.9528,2.6604-2.2593,3.0534-.2626,6.6105,7.1109,6.6105h28.8853l6.8226-9.2709h-40.8661Z" fill="#d40511"/>
    </g>
    <g>
      <path d="m34.4685,7.8007l-6.2621,8.5079h34.1288c1.7249,0,1.7023.655.8593,1.7975-.8562,1.1587-2.2894,3.1763-3.1614,4.3539-.4427.5969-1.2431,1.6867,1.4089,1.6867h13.9564s2.2495-3.0615,4.1352-5.6206c2.5655-3.4815.2225-10.7254-8.9486-10.7254h-36.1165Z" fill="#d40511"/>
      <polygon points="125.2688 24.1467 81.2619 24.1467 93.2956 7.8007 111.2819 7.8007 104.3858 17.173 112.4136 17.173 119.3153 7.8007 137.2989 7.8007 125.2688 24.1467 125.2688 24.1467" fill="#d40511"/>
      <path d="m162.2084,7.8007l-12.0314,16.346h-19.0593s12.0355-16.346,12.0415-16.346h19.0492Z" fill="#d40511"/>
    </g>
  </g>
  <g>
    <path d="m45.5381,56.1944c-.971,0-1.8626-.1411-2.6756-.4234-.8133-.2816-1.5473-.6651-2.203-1.1506l1.3768-2.1047c1.0753.7738,2.2492,1.1607,3.5214,1.1607.6688,0,1.2161-.1114,1.6425-.3349.4261-.2228.6395-.5767.6395-1.0622,0-.6948-.5182-1.1736-1.5541-1.4356l-1.6526-.4328c-1.1148-.3018-1.9572-.7603-2.5278-1.3775-.5706-.6158-.8555-1.4288-.8555-2.439,0-1.2458.449-2.2195,1.3474-2.9211.8981-.7016,2.1277-1.0527,3.6885-1.0527.8522,0,1.6489.1182,2.39.3545.7407.2357,1.4389.5834,2.0949,1.0426l-1.3376,2.1243c-.9312-.6692-1.9606-1.0034-3.0885-1.0034-.5638,0-1.0557.102-1.4754.3052s-.6293.5476-.6293,1.0324c0,.3545.128.6361.3835.8461.2559.21.6395.3802,1.1509.5112l1.6523.4328c1.0885.289,1.9308.7509,2.5278,1.3869.5966.6361.895,1.4592.895,2.4687,0,1.2985-.469,2.3019-1.4065,3.0102-.9376.7077-2.2394,1.0622-3.9046,1.0622Z" fill="#d40511"/>
    <path d="m55.9247,56.0958c-.9835,0-1.7377-.3471-2.262-1.0426-.5247-.6948-.787-1.6786-.787-2.9508v-6.2358h2.8522v6.0589c0,.5382.1148.9636.3444,1.2789.2292.3147.5932.472,1.0919.472.367,0,.6884-.0885.9639-.266.2755-.1769.4983-.4031.6688-.6786v-6.8652h2.8522v10.0327h-2.6949v-1.7509c-.3018.5773-.7049,1.0459-1.2097,1.4065-.5051.3606-1.1114.5409-1.8198.5409Z" fill="#d40511"/>
    <path d="m64.2456,59.6368v-13.7701h2.6949v1.7313c.2755-.603.6719-1.0757,1.1901-1.4167.5179-.341,1.1114-.5112,1.7803-.5112,1.1276,0,2.0095.4295,2.6459,1.2884.6357.8589.9541,2.0358.9541,3.5308v.7873c0,1.495-.3184,2.6719-.9541,3.5308-.6364.8589-1.5183,1.2884-2.6459,1.2884-1.2985,0-2.2361-.603-2.813-1.8096v5.3506h-2.8522Zm4.5832-11.5668c-.7212,0-1.2981.3079-1.731.9244v3.7969c.4328.603,1.0098.9048,1.731.9048.5902,0,1.0426-.2134,1.3576-.6395.3147-.4261.472-1.0392.472-1.8394v-.6685c0-.8002-.1573-1.4133-.472-1.8394-.315-.4261-.7674-.6395-1.3576-.6395Z" fill="#d40511"/>
    <path d="m75.6747,59.6368v-13.7701h2.6949v1.7313c.2755-.603.6719-1.0757,1.1901-1.4167.5179-.341,1.1114-.5112,1.7803-.5112,1.1276,0,2.0095.4295,2.6459,1.2884.6357.8589.9541,2.0358.9541,3.5308v.7873c0,1.495-.3184,2.6719-.9541,3.5308-.6364.8589-1.5183,1.2884-2.6459,1.2884-1.2985,0-2.2361-.603-2.813-1.8096v5.3506h-2.8522Zm4.5832-11.5668c-.7212,0-1.2981.3079-1.731.9244v3.7969c.4328.603,1.0098.9048,1.731.9048.5902,0,1.0426-.2134,1.3576-.6395.3147-.4261.472-1.0392.472-1.8394v-.6685c0-.8002-.1573-1.4133-.472-1.8394-.315-.4261-.7674-.6395-1.3576-.6395Z" fill="#d40511"/>
    <path d="m90.0938,56.0958c-1.1803,0-1.9839-.2654-2.4099-.7968-.4261-.5307-.6391-1.3012-.6391-2.3113v-10.8585h2.8522v10.7208c0,.341.0753.5807.2262.7185.1506.1371.3704.2059.659.2059.1182,0,.2427-.0128.3737-.0392v2.3019c-.3147.0392-.6688.0587-1.0622.0587Z" fill="#d40511"/>
    <path d="m94.4018,59.6368l1.1999-3.7374h-.9835l-3.0295-10.0327h3.1081l1.8296,7.6126h.3342l1.9673-7.6126h3.0092l-4.465,13.7701h-2.9704Z" fill="#d40511"/>
    <path d="m112.1845,56.1944c-1.2067,0-2.2458-.2525-3.1183-.7576-.8717-.5044-1.5476-1.2229-2.0257-2.154-.4787-.9312-.7185-2.0325-.7185-3.3046v-1.1412c0-1.2721.2397-2.3735.7185-3.3046.4781-.9312,1.154-1.6489,2.0257-2.154.8724-.5051,1.9116-.7576,3.1183-.7576,1.8225,0,3.331.6624,4.5241,1.9872l-1.7306,1.8684c-.7873-.8657-1.6719-1.2985-2.6557-1.2985-.9575,0-1.6955.3248-2.2134.9737-.5179.6496-.7765,1.5841-.7765,2.8036v.9048c0,1.2067.2552,2.1378.7671,2.7935.5112.6557,1.2458.9831,2.2033.9831.4983,0,.9798-.0979,1.4457-.2951.4652-.1965.9149-.524,1.3478-.9831l1.7306,1.8684c-.5773.6563-1.2586,1.1479-2.046,1.4754-.7867.3282-1.6523.4922-2.5963.4922Z" fill="#d40511"/>
    <path d="m118.6169,55.8993v-13.7701h2.8522v5.331c.3147-.551.7144-.9865,1.1999-1.3086.4848-.3207,1.0689-.4814,1.7509-.4814.9967,0,1.7603.3444,2.2918,1.0324.5307.6887.7968,1.6753.7968,2.9609v6.2358h-2.8522v-6.0589c0-.5375-.1182-.9669-.3545-1.2884-.2357-.3214-.6097-.4821-1.1209-.4821-.3937,0-.7313.0918-1.0135.2755s-.5145.4132-.6982.6881v6.8658h-2.8522Z" fill="#d40511"/>
    <path d="m132.0724,56.0958c-.8792,0-1.5902-.2721-2.1344-.8164s-.8164-1.2553-.8164-2.1344c0-.9831.3734-1.7637,1.1209-2.3411.7482-.5767,1.7576-.865,3.0298-.865h1.574v-.1377c0-1.2593-.6104-1.8886-1.8299-1.8886-.7867,0-1.5078.2687-2.1635.8062l-1.3181-1.7705c.9703-.8785,2.2161-1.3181,3.7374-1.3181,2.8455,0,4.2689,1.3842,4.2689,4.1507v3.1284c0,.5767.2424.865.7279.865h.108c.0459,0,.1209-.0061.2262-.0196v2.2627c-.1837.0257-.3673.0452-.551.0587-.1837.0128-.3673.0196-.551.0196-.7212,0-1.2755-.1344-1.6618-.4031-.3869-.2687-.6395-.6914-.7576-1.2688-.7212,1.1148-1.7246,1.6719-3.0095,1.6719Zm1.1412-2.1047c.6422,0,1.1864-.2822,1.6327-.8461v-1.4362h-1.1803c-1.1412,0-1.7117.4004-1.7117,1.2006,0,.341.1114.6064.3342.7961.2228.1904.5314.2856.9251.2856Z" fill="#d40511"/>
    <path d="m141.6513,44.8045c-.472,0-.8717-.1377-1.1999-.4132-.3275-.2755-.4916-.6489-.4916-1.1216,0-.472.1641-.8454.4916-1.1209.3282-.2755.7279-.4132,1.1999-.4132.4727,0,.8724.1377,1.2006.4132.3275.2755.4916.6489.4916,1.1209,0,.4727-.1641.8461-.4916,1.1216-.3282.2755-.7279.4132-1.2006.4132Zm-1.4356,11.0948v-10.0327h2.8522v10.0327h-2.8522Z" fill="#d40511"/>
    <path d="m145.6649,55.8993v-10.0327h2.6949v1.7509c.3018-.5773.6982-1.0459,1.1898-1.4065.4922-.3606,1.1047-.5409,1.8394-.5409.9967,0,1.7739.3376,2.3316,1.0129.5571.6759.8359,1.6165.8359,2.8232v6.3932h-2.8522v-6.0589c0-.5375-.1182-.9669-.3545-1.2884-.2357-.3214-.6097-.4821-1.1209-.4821-.3937,0-.7313.0918-1.0135.2755s-.5145.4132-.6982.6881v6.8658h-2.8522Z" fill="#d40511"/>
  </g>
</svg>
