<svg version="1.1" id="Layer_1" xmlns="http://www.w3.org/2000/svg" xmlns:xlink="http://www.w3.org/1999/xlink" x="0px" y="0px"
	 width="100%" viewBox="0 0 810 540" enable-background="new 0 0 810 540" xml:space="preserve">


	
<path fill="#003399" opacity="1.000000" stroke="none" 
	d="
M604.000000,541.000000 
	C402.666656,541.000000 201.833328,541.000000 1.000000,541.000000 
	C1.000000,361.000000 1.000000,181.000000 1.000000,1.000000 
	C271.000000,1.000000 541.000000,1.000000 811.000000,1.000000 
	C811.000000,181.000000 811.000000,361.000000 811.000000,541.000000 
	C742.166687,541.000000 673.333313,541.000000 604.000000,541.000000 
M267.547638,383.572693 
	C267.547638,383.572693 267.381592,383.570160 267.381592,383.570160 
	C267.381592,383.570160 267.596344,383.594360 267.092926,383.018860 
	C265.090698,376.901703 263.088501,370.784546 261.067078,364.608704 
	C266.756073,360.428436 272.172943,356.448151 278.492615,351.804474 
	C272.919922,351.804474 268.415680,351.465240 263.985382,351.892334 
	C258.719452,352.400024 255.704361,350.981384 254.687454,345.303101 
	C253.889893,340.849609 251.952026,336.600342 250.128174,331.069946 
	C248.049347,337.433594 246.169800,342.682190 244.652725,348.033569 
	C243.832672,350.926117 242.446457,352.018311 239.381302,351.875641 
	C233.920288,351.621521 228.438950,351.804230 221.726807,351.804230 
	C228.285736,356.594879 233.635010,360.501984 239.132217,364.517151 
	C237.018875,371.195587 234.960052,377.701752 232.587967,385.197845 
	C235.547501,383.053070 237.551605,381.588348 239.568314,380.141235 
	C250.248413,372.477509 250.210831,372.532806 260.931702,380.244781 
	C262.884521,381.649536 265.297485,382.414673 267.547638,383.572693 
M267.547577,203.572571 
	C267.547577,203.572571 267.381500,203.570160 267.381500,203.570160 
	C267.381500,203.570160 267.596191,203.594116 267.092865,203.018600 
	C265.090759,196.901611 263.088623,190.784637 261.067474,184.609451 
	C266.756836,180.428467 272.173157,176.448151 278.492126,171.804474 
	C272.752716,171.804474 268.080017,171.450073 263.486298,171.900497 
	C258.528687,172.386566 255.858383,170.985916 254.834259,165.782883 
	C253.926453,161.170776 252.004150,156.758347 250.134308,151.050964 
	C248.049255,157.433716 246.169739,162.682281 244.652710,168.033615 
	C243.832703,170.926193 242.446381,172.018311 239.381317,171.875702 
	C233.920517,171.621613 228.439392,171.804260 221.727097,171.804260 
	C228.286362,176.595200 233.635544,180.502289 239.132248,184.517136 
	C237.018753,191.195786 234.959930,197.701721 232.587570,205.198441 
	C235.547867,203.052963 237.551895,201.588196 239.568573,200.141068 
	C250.248306,192.477524 250.210709,192.532852 260.931732,200.244873 
	C262.884491,201.649567 265.297394,202.414551 267.547577,203.572571 
M545.013672,203.968872 
	C549.643494,200.865402 554.384705,197.912155 558.856384,194.595428 
	C561.106262,192.926605 562.686340,192.804001 564.927734,194.568558 
	C569.314514,198.022095 573.939331,201.173431 579.429138,205.147354 
	C577.013733,197.574066 574.966003,191.153336 572.864807,184.565170 
	C578.460449,180.468597 583.910461,176.478622 590.295227,171.804291 
	C583.758301,171.804291 578.299500,171.603516 572.864990,171.879684 
	C569.611511,172.044983 568.125793,170.870712 567.260925,167.808899 
	C565.756653,162.483765 563.874878,157.265244 561.854675,151.095932 
	C559.720398,157.588257 557.771240,162.885300 556.281677,168.308594 
	C555.505981,171.132874 554.116577,171.947678 551.350098,171.857971 
	C545.778564,171.677277 540.197083,171.804184 533.547302,171.804184 
	C539.975952,176.528397 545.430908,180.537033 551.115112,184.714188 
	C548.802124,191.120819 546.563354,197.321930 544.610291,203.590546 
	C544.610291,203.590546 544.506165,203.721176 544.506165,203.721176 
	C544.506165,203.721176 544.372498,203.460022 545.013672,203.968872 
M545.013672,383.968719 
	C549.643127,380.865570 554.383850,377.912415 558.855408,374.596222 
	C561.104370,372.928375 562.684204,372.802216 564.926331,374.567474 
	C569.313782,378.021729 573.939392,381.173401 579.429443,385.147430 
	C577.014465,377.576691 574.966431,371.156311 572.864258,364.566162 
	C578.457275,360.470947 583.907288,356.480499 590.293823,351.804260 
	C583.757507,351.804260 578.297974,351.603119 572.862854,351.879761 
	C569.607849,352.045471 568.125244,350.867096 567.260498,347.807465 
	C565.755737,342.482880 563.874512,337.264740 561.854614,331.096497 
	C559.720581,337.588043 557.771606,342.884796 556.282043,348.307770 
	C555.506531,351.130951 554.118530,351.947845 551.351440,351.858032 
	C545.780273,351.677155 540.199036,351.804169 533.547302,351.804169 
	C539.976440,356.528748 545.431091,360.537231 551.115173,364.714294 
	C548.802185,371.120850 546.563416,377.321838 544.610168,383.590179 
	C544.610168,383.590179 544.505188,383.720947 544.505188,383.720947 
	C544.505188,383.720947 544.372559,383.459778 545.013672,383.968719 
M568.571655,261.805420 
	C565.298401,261.805420 562.025146,261.805420 557.659912,261.805420 
	C564.089233,266.526123 569.549011,270.534943 575.034058,274.562317 
	C572.911621,281.216522 570.870544,287.615631 568.451355,295.200439 
	C573.805664,291.326019 578.233826,288.397949 582.327881,285.060089 
	C584.960449,282.913788 586.854065,282.665222 589.609680,284.965302 
	C593.666016,288.351135 598.156067,291.217407 603.554077,295.088593 
	C601.079163,287.387054 599.060181,281.104248 596.965942,274.587341 
	C602.467163,270.546814 607.924561,266.538483 614.368713,261.805420 
	C608.383667,261.805420 603.716248,261.507263 599.105042,261.888641 
	C594.425354,262.275665 591.807861,261.026703 590.796692,256.013641 
	C589.844910,251.294861 587.861633,246.784149 585.988037,241.146286 
	C584.461731,245.709610 583.298157,249.117966 582.181152,252.541519 
	C579.159485,261.802795 579.167358,261.805359 568.571655,261.805420 
M399.662170,467.094391 
	C406.006714,462.477509 406.005463,462.479248 412.496460,467.177460 
	C415.824493,469.586273 419.157898,471.987671 423.535492,475.148010 
	C421.106812,467.519867 419.063751,461.103027 416.983856,454.570435 
	C422.588684,450.461792 428.026062,446.475861 434.397278,441.805420 
	C428.637909,441.805420 423.968201,441.457886 419.374420,441.899719 
	C414.426025,442.375641 411.745392,441.015228 410.734009,435.773590 
	C409.843658,431.159210 407.872711,426.753326 405.998169,421.108673 
	C403.839203,427.648010 402.262848,433.160431 400.118317,438.442139 
	C399.520874,439.913513 397.301117,441.543945 395.725342,441.653076 
	C390.120422,442.041199 384.472229,441.804626 377.634766,441.804626 
	C384.062225,446.504242 389.498901,450.479431 395.035065,454.527344 
	C392.926239,461.148560 390.878998,467.576385 388.455872,475.184509 
	C392.675537,472.140839 395.876709,469.831818 399.662170,467.094391 
M222.602646,284.967255 
	C224.840256,282.643768 226.852341,282.749695 229.423706,284.847778 
	C233.588531,288.246002 238.107132,291.210632 243.527451,295.115540 
	C241.079849,287.421570 239.039825,281.008759 236.988098,274.559235 
	C242.639862,270.417847 248.031982,266.466736 254.394424,261.804596 
	C247.516678,261.804596 241.858582,262.041962 236.244095,261.651855 
	C234.674042,261.542755 232.468628,259.893158 231.869568,258.416718 
	C229.728455,253.139755 228.152283,247.633575 225.977264,241.048080 
	C224.019348,247.086121 222.211517,251.854111 220.964966,256.764587 
	C219.991760,260.598358 218.317780,262.279633 214.095261,261.910431 
	C209.015320,261.466248 203.866913,261.805389 197.624466,261.805389 
	C204.074585,266.521454 209.548370,270.523682 215.039856,274.538818 
	C212.912277,281.213074 210.873260,287.609528 208.450684,295.209259 
	C213.694656,291.407043 217.849030,288.394836 222.602646,284.967255 
M403.136292,69.591972 
	C402.284302,72.284973 401.204590,74.931061 400.637573,77.682785 
	C399.918091,81.174126 397.986389,82.058594 394.623444,81.879776 
	C389.348114,81.599281 384.046906,81.805336 377.620087,81.805336 
	C384.066223,86.515450 389.536469,90.512482 395.041534,94.534958 
	C392.915558,101.201218 390.871704,107.610062 388.451752,115.198219 
	C393.799805,111.329147 398.234924,108.400665 402.330963,105.056755 
	C404.972198,102.900490 406.869446,102.674080 409.618958,104.973526 
	C413.668793,108.360443 418.146332,111.235947 423.567780,115.140251 
	C421.069794,107.363625 419.049988,101.075577 416.964203,94.582146 
	C422.521057,90.516342 427.997803,86.509171 434.427155,81.805008 
	C427.739288,81.805008 422.124512,81.669632 416.520935,81.862206 
	C413.725067,81.958290 412.370819,81.075508 411.587494,78.292648 
	C410.055115,72.848763 408.098816,67.524200 405.965851,61.087547 
	C404.838867,64.498856 404.117706,66.681831 403.136292,69.591972 
M321.284698,413.278076 
	C319.644653,408.204407 318.004608,403.130737 315.982300,396.874451 
	C314.028656,402.903198 312.181793,407.527832 311.077850,412.323456 
	C310.056427,416.760590 307.800720,418.118500 303.403839,417.742462 
	C298.600128,417.331573 293.734100,417.649048 287.586578,417.649048 
	C294.255493,422.531342 299.697876,426.515656 305.050446,430.434265 
	C302.883942,437.194946 300.873810,443.467682 298.403656,451.175964 
	C304.071655,447.040680 308.647095,443.873718 313.016083,440.443817 
	C315.250671,438.689545 316.899963,438.765747 319.116455,440.507904 
	C323.430115,443.898499 327.981110,446.987183 333.523560,450.987457 
	C331.044586,443.183655 329.011963,436.784851 326.991180,430.423370 
	C332.681030,426.262665 338.021698,422.357300 344.461212,417.648407 
	C337.623260,417.648407 332.034424,417.509796 326.457367,417.706299 
	C323.626617,417.806030 322.004120,416.913971 321.284698,413.278076 
M491.407196,410.882324 
	C490.695709,416.189819 488.010681,418.463501 482.382965,417.760223 
	C477.954773,417.206818 473.402161,417.649048 467.593781,417.649048 
	C474.267975,422.538910 479.708038,426.524567 485.045013,430.434692 
	C482.875702,437.214874 480.868561,443.488098 478.440674,451.076324 
	C483.927216,447.115540 488.442139,444.118164 492.640411,440.728485 
	C495.211304,438.652710 497.033661,438.821625 499.535156,440.833649 
	C503.668091,444.157959 508.120575,447.084961 513.546570,450.973572 
	C511.072296,443.267761 509.055725,436.987305 506.958801,430.456696 
	C512.459106,426.432861 517.915100,422.441467 524.466125,417.648956 
	C517.928467,417.648956 512.651184,417.387939 507.414581,417.737244 
	C503.686005,417.985962 502.087036,416.560547 501.162872,413.111176 
	C499.802795,408.034790 497.977539,403.083069 495.946350,396.835297 
	C494.230377,402.256714 492.983124,406.197174 491.407196,410.882324 
M508.385651,117.621674 
	C513.384888,113.974518 518.384155,110.327354 524.434204,105.913635 
	C517.730408,105.913635 512.409058,105.627846 507.136688,106.012459 
	C503.522339,106.276115 502.164368,104.806961 501.278137,101.624908 
	C499.844940,96.478645 498.029541,91.438843 495.992340,85.176186 
	C493.815948,91.805717 491.874725,97.075760 490.399963,102.473244 
	C489.622833,105.317421 488.215973,106.068436 485.456665,105.971237 
	C479.933258,105.776695 474.398193,105.913498 467.609131,105.913498 
	C474.154846,110.688408 479.504456,114.590805 485.032867,118.623650 
	C482.945160,125.180122 480.897186,131.611725 478.455261,139.280624 
	C484.009369,135.282471 488.653656,132.168793 493.018066,128.702652 
	C495.269684,126.914482 496.819611,126.931847 499.054108,128.700424 
	C503.387024,132.130005 507.977142,135.234665 513.528503,139.245438 
	C512.448364,135.870239 511.711945,133.867996 511.169983,131.814438 
	C509.969360,127.265030 508.866425,122.689842 508.385651,117.621674 
M307.395660,132.878159 
	C308.742645,131.905441 310.266449,131.103531 311.402679,129.927216 
	C314.535370,126.684021 317.240753,126.822868 320.651947,129.841721 
	C324.291718,133.062836 328.525574,135.612579 333.548065,139.204987 
	C331.423340,132.609650 329.830261,127.231186 327.931030,121.963120 
	C327.060333,119.547989 327.358734,118.150642 329.600891,116.655708 
	C334.318176,113.510536 338.800934,110.013588 344.400848,105.913544 
	C337.564270,105.913544 332.093292,105.711105 326.647186,105.991760 
	C323.530487,106.152382 322.265045,105.000702 321.461243,102.118904 
	C319.980438,96.810066 318.094299,91.614296 315.989716,85.188782 
	C313.834961,91.760086 311.930634,97.013824 310.428345,102.380119 
	C309.664368,105.109108 308.421143,106.094543 305.568207,105.979103 
	C300.025604,105.754814 294.467529,105.913452 287.670197,105.913452 
	C294.201111,110.709618 299.616699,114.686714 305.023041,118.657013 
	C302.898743,125.359879 300.882843,131.720657 298.480469,139.300980 
	C301.989258,136.758545 304.390778,135.018417 307.395660,132.878159 
z"/>
<path fill="#F9C903" opacity="1.000000" stroke="none" 
	d="
M544.324646,383.522827 
	C546.563416,377.321838 548.802185,371.120850 551.115173,364.714294 
	C545.431091,360.537231 539.976440,356.528748 533.547302,351.804169 
	C540.199036,351.804169 545.780273,351.677155 551.351440,351.858032 
	C554.118530,351.947845 555.506531,351.130951 556.282043,348.307770 
	C557.771606,342.884796 559.720581,337.588043 561.854614,331.096497 
	C563.874512,337.264740 565.755737,342.482880 567.260498,347.807465 
	C568.125244,350.867096 569.607849,352.045471 572.862854,351.879761 
	C578.297974,351.603119 583.757507,351.804260 590.293823,351.804260 
	C583.907288,356.480499 578.457275,360.470947 572.864258,364.566162 
	C574.966431,371.156311 577.014465,377.576691 579.429443,385.147430 
	C573.939392,381.173401 569.313782,378.021729 564.926331,374.567474 
	C562.684204,372.802216 561.104370,372.928375 558.855408,374.596222 
	C554.383850,377.912415 549.643127,380.865570 544.721069,383.757629 
	C544.428528,383.546570 544.324646,383.522827 544.324646,383.522827 
z"/>
<path fill="#F9C903" opacity="1.000000" stroke="none" 
	d="
M544.324585,203.523056 
	C546.563354,197.321930 548.802124,191.120819 551.115112,184.714188 
	C545.430908,180.537033 539.975952,176.528397 533.547302,171.804184 
	C540.197083,171.804184 545.778564,171.677277 551.350098,171.857971 
	C554.116577,171.947678 555.505981,171.132874 556.281677,168.308594 
	C557.771240,162.885300 559.720398,157.588257 561.854675,151.095932 
	C563.874878,157.265244 565.756653,162.483765 567.260925,167.808899 
	C568.125793,170.870712 569.611511,172.044983 572.864990,171.879684 
	C578.299500,171.603516 583.758301,171.804291 590.295227,171.804291 
	C583.910461,176.478622 578.460449,180.468597 572.864807,184.565170 
	C574.966003,191.153336 577.013733,197.574066 579.429138,205.147354 
	C573.939331,201.173431 569.314514,198.022095 564.927734,194.568558 
	C562.686340,192.804001 561.106262,192.926605 558.856384,194.595428 
	C554.384705,197.912155 549.643494,200.865402 544.721069,203.757874 
	C544.428467,203.546860 544.324585,203.523056 544.324585,203.523056 
z"/>
<path fill="#F9C903" opacity="1.000000" stroke="none" 
	d="
M267.497894,203.474854 
	C265.297394,202.414551 262.884491,201.649567 260.931732,200.244873 
	C250.210709,192.532852 250.248306,192.477524 239.568573,200.141068 
	C237.551895,201.588196 235.547867,203.052963 232.587570,205.198441 
	C234.959930,197.701721 237.018753,191.195786 239.132248,184.517136 
	C233.635544,180.502289 228.286362,176.595200 221.727097,171.804260 
	C228.439392,171.804260 233.920517,171.621613 239.381317,171.875702 
	C242.446381,172.018311 243.832703,170.926193 244.652710,168.033615 
	C246.169739,162.682281 248.049255,157.433716 250.134308,151.050964 
	C252.004150,156.758347 253.926453,161.170776 254.834259,165.782883 
	C255.858383,170.985916 258.528687,172.386566 263.486298,171.900497 
	C268.080017,171.450073 272.752716,171.804474 278.492126,171.804474 
	C272.173157,176.448151 266.756836,180.428467 261.067474,184.609451 
	C263.088623,190.784637 265.090759,196.901611 267.293701,203.298187 
	C267.494537,203.577774 267.497894,203.474854 267.497894,203.474854 
z"/>
<path fill="#F9C903" opacity="1.000000" stroke="none" 
	d="
M267.498016,383.475037 
	C265.297485,382.414673 262.884521,381.649536 260.931702,380.244781 
	C250.210831,372.532806 250.248413,372.477509 239.568314,380.141235 
	C237.551605,381.588348 235.547501,383.053070 232.587967,385.197845 
	C234.960052,377.701752 237.018875,371.195587 239.132217,364.517151 
	C233.635010,360.501984 228.285736,356.594879 221.726807,351.804230 
	C228.438950,351.804230 233.920288,351.621521 239.381302,351.875641 
	C242.446457,352.018311 243.832672,350.926117 244.652725,348.033569 
	C246.169800,342.682190 248.049347,337.433594 250.128174,331.069946 
	C251.952026,336.600342 253.889893,340.849609 254.687454,345.303101 
	C255.704361,350.981384 258.719452,352.400024 263.985382,351.892334 
	C268.415680,351.465240 272.919922,351.804474 278.492615,351.804474 
	C272.172943,356.448151 266.756073,360.428436 261.067078,364.608704 
	C263.088501,370.784546 265.090698,376.901703 267.293823,383.298401 
	C267.494720,383.577942 267.498016,383.475037 267.498016,383.475037 
z"/>
<path fill="#FAC903" opacity="1.000000" stroke="none" 
	d="
M569.054932,261.805420 
	C579.167358,261.805359 579.159485,261.802795 582.181152,252.541519 
	C583.298157,249.117966 584.461731,245.709610 585.988037,241.146286 
	C587.861633,246.784149 589.844910,251.294861 590.796692,256.013641 
	C591.807861,261.026703 594.425354,262.275665 599.105042,261.888641 
	C603.716248,261.507263 608.383667,261.805420 614.368713,261.805420 
	C607.924561,266.538483 602.467163,270.546814 596.965942,274.587341 
	C599.060181,281.104248 601.079163,287.387054 603.554077,295.088593 
	C598.156067,291.217407 593.666016,288.351135 589.609680,284.965302 
	C586.854065,282.665222 584.960449,282.913788 582.327881,285.060089 
	C578.233826,288.397949 573.805664,291.326019 568.451355,295.200439 
	C570.870544,287.615631 572.911621,281.216522 575.034058,274.562317 
	C569.549011,270.534943 564.089233,266.526123 557.659912,261.805420 
	C562.025146,261.805420 565.298401,261.805420 569.054932,261.805420 
z"/>
<path fill="#FAC903" opacity="1.000000" stroke="none" 
	d="
M399.370056,467.308594 
	C395.876709,469.831818 392.675537,472.140839 388.455872,475.184509 
	C390.878998,467.576385 392.926239,461.148560 395.035065,454.527344 
	C389.498901,450.479431 384.062225,446.504242 377.634766,441.804626 
	C384.472229,441.804626 390.120422,442.041199 395.725342,441.653076 
	C397.301117,441.543945 399.520874,439.913513 400.118317,438.442139 
	C402.262848,433.160431 403.839203,427.648010 405.998169,421.108673 
	C407.872711,426.753326 409.843658,431.159210 410.734009,435.773590 
	C411.745392,441.015228 414.426025,442.375641 419.374420,441.899719 
	C423.968201,441.457886 428.637909,441.805420 434.397278,441.805420 
	C428.026062,446.475861 422.588684,450.461792 416.983856,454.570435 
	C419.063751,461.103027 421.106812,467.519867 423.535492,475.148010 
	C419.157898,471.987671 415.824493,469.586273 412.496460,467.177460 
	C406.005463,462.479248 406.006714,462.477509 399.370056,467.308594 
z"/>
<path fill="#FAC903" opacity="1.000000" stroke="none" 
	d="
M222.303040,285.174957 
	C217.849030,288.394836 213.694656,291.407043 208.450684,295.209259 
	C210.873260,287.609528 212.912277,281.213074 215.039856,274.538818 
	C209.548370,270.523682 204.074585,266.521454 197.624466,261.805389 
	C203.866913,261.805389 209.015320,261.466248 214.095261,261.910431 
	C218.317780,262.279633 219.991760,260.598358 220.964966,256.764587 
	C222.211517,251.854111 224.019348,247.086121 225.977264,241.048080 
	C228.152283,247.633575 229.728455,253.139755 231.869568,258.416718 
	C232.468628,259.893158 234.674042,261.542755 236.244095,261.651855 
	C241.858582,262.041962 247.516678,261.804596 254.394424,261.804596 
	C248.031982,266.466736 242.639862,270.417847 236.988098,274.559235 
	C239.039825,281.008759 241.079849,287.421570 243.527451,295.115540 
	C238.107132,291.210632 233.588531,288.246002 229.423706,284.847778 
	C226.852341,282.749695 224.840256,282.643768 222.303040,285.174957 
z"/>
<path fill="#FAC903" opacity="1.000000" stroke="none" 
	d="
M403.266418,69.228394 
	C404.117706,66.681831 404.838867,64.498856 405.965851,61.087547 
	C408.098816,67.524200 410.055115,72.848763 411.587494,78.292648 
	C412.370819,81.075508 413.725067,81.958290 416.520935,81.862206 
	C422.124512,81.669632 427.739288,81.805008 434.427155,81.805008 
	C427.997803,86.509171 422.521057,90.516342 416.964203,94.582146 
	C419.049988,101.075577 421.069794,107.363625 423.567780,115.140251 
	C418.146332,111.235947 413.668793,108.360443 409.618958,104.973526 
	C406.869446,102.674080 404.972198,102.900490 402.330963,105.056755 
	C398.234924,108.400665 393.799805,111.329147 388.451752,115.198219 
	C390.871704,107.610062 392.915558,101.201218 395.041534,94.534958 
	C389.536469,90.512482 384.066223,86.515450 377.620087,81.805336 
	C384.046906,81.805336 389.348114,81.599281 394.623444,81.879776 
	C397.986389,82.058594 399.918091,81.174126 400.637573,77.682785 
	C401.204590,74.931061 402.284302,72.284973 403.266418,69.228394 
z"/>
<path fill="#FAC903" opacity="1.000000" stroke="none" 
	d="
M321.456909,413.668396 
	C322.004120,416.913971 323.626617,417.806030 326.457367,417.706299 
	C332.034424,417.509796 337.623260,417.648407 344.461212,417.648407 
	C338.021698,422.357300 332.681030,426.262665 326.991180,430.423370 
	C329.011963,436.784851 331.044586,443.183655 333.523560,450.987457 
	C327.981110,446.987183 323.430115,443.898499 319.116455,440.507904 
	C316.899963,438.765747 315.250671,438.689545 313.016083,440.443817 
	C308.647095,443.873718 304.071655,447.040680 298.403656,451.175964 
	C300.873810,443.467682 302.883942,437.194946 305.050446,430.434265 
	C299.697876,426.515656 294.255493,422.531342 287.586578,417.649048 
	C293.734100,417.649048 298.600128,417.331573 303.403839,417.742462 
	C307.800720,418.118500 310.056427,416.760590 311.077850,412.323456 
	C312.181793,407.527832 314.028656,402.903198 315.982300,396.874451 
	C318.004608,403.130737 319.644653,408.204407 321.456909,413.668396 
z"/>
<path fill="#FAC903" opacity="1.000000" stroke="none" 
	d="
M491.571533,410.509979 
	C492.983124,406.197174 494.230377,402.256714 495.946350,396.835297 
	C497.977539,403.083069 499.802795,408.034790 501.162872,413.111176 
	C502.087036,416.560547 503.686005,417.985962 507.414581,417.737244 
	C512.651184,417.387939 517.928467,417.648956 524.466125,417.648956 
	C517.915100,422.441467 512.459106,426.432861 506.958801,430.456696 
	C509.055725,436.987305 511.072296,443.267761 513.546570,450.973572 
	C508.120575,447.084961 503.668091,444.157959 499.535156,440.833649 
	C497.033661,438.821625 495.211304,438.652710 492.640411,440.728485 
	C488.442139,444.118164 483.927216,447.115540 478.440674,451.076324 
	C480.868561,443.488098 482.875702,437.214874 485.045013,430.434692 
	C479.708038,426.524567 474.267975,422.538910 467.593781,417.649048 
	C473.402161,417.649048 477.954773,417.206818 482.382965,417.760223 
	C488.010681,418.463501 490.695709,416.189819 491.571533,410.509979 
z"/>
<path fill="#FAC903" opacity="1.000000" stroke="none" 
	d="
M508.054657,117.873413 
	C508.866425,122.689842 509.969360,127.265030 511.169983,131.814438 
	C511.711945,133.867996 512.448364,135.870239 513.528503,139.245438 
	C507.977142,135.234665 503.387024,132.130005 499.054108,128.700424 
	C496.819611,126.931847 495.269684,126.914482 493.018066,128.702652 
	C488.653656,132.168793 484.009369,135.282471 478.455261,139.280624 
	C480.897186,131.611725 482.945160,125.180122 485.032867,118.623650 
	C479.504456,114.590805 474.154846,110.688408 467.609131,105.913498 
	C474.398193,105.913498 479.933258,105.776695 485.456665,105.971237 
	C488.215973,106.068436 489.622833,105.317421 490.399963,102.473244 
	C491.874725,97.075760 493.815948,91.805717 495.992340,85.176186 
	C498.029541,91.438843 499.844940,96.478645 501.278137,101.624908 
	C502.164368,104.806961 503.522339,106.276115 507.136688,106.012459 
	C512.409058,105.627846 517.730408,105.913635 524.434204,105.913635 
	C518.384155,110.327354 513.384888,113.974518 508.054657,117.873413 
z"/>
<path fill="#FAC903" opacity="1.000000" stroke="none" 
	d="
M307.093994,133.078232 
	C304.390778,135.018417 301.989258,136.758545 298.480469,139.300980 
	C300.882843,131.720657 302.898743,125.359879 305.023041,118.657013 
	C299.616699,114.686714 294.201111,110.709618 287.670197,105.913452 
	C294.467529,105.913452 300.025604,105.754814 305.568207,105.979103 
	C308.421143,106.094543 309.664368,105.109108 310.428345,102.380119 
	C311.930634,97.013824 313.834961,91.760086 315.989716,85.188782 
	C318.094299,91.614296 319.980438,96.810066 321.461243,102.118904 
	C322.265045,105.000702 323.530487,106.152382 326.647186,105.991760 
	C332.093292,105.711105 337.564270,105.913544 344.400848,105.913544 
	C338.800934,110.013588 334.318176,113.510536 329.600891,116.655708 
	C327.358734,118.150642 327.060333,119.547989 327.931030,121.963120 
	C329.830261,127.231186 331.423340,132.609650 333.548065,139.204987 
	C328.525574,135.612579 324.291718,133.062836 320.651947,129.841721 
	C317.240753,126.822868 314.535370,126.684021 311.402679,129.927216 
	C310.266449,131.103531 308.742645,131.905441 307.093994,133.078232 
z"/>
<path fill="#F9C903" opacity="1.000000" stroke="none" 
	d="
M544.400513,203.503448 
	C544.372498,203.460022 544.506165,203.721176 544.506165,203.721176 
	C544.506165,203.721176 544.610291,203.590546 544.467407,203.556793 
	C544.324585,203.523056 544.428467,203.546860 544.400513,203.503448 
z"/>
<path fill="#F9C903" opacity="1.000000" stroke="none" 
	d="
M267.545349,203.585938 
	C267.596191,203.594116 267.381500,203.570160 267.381500,203.570160 
	C267.381500,203.570160 267.547577,203.572571 267.522736,203.523712 
	C267.497894,203.474854 267.494537,203.577774 267.545349,203.585938 
z"/>
<path fill="#F9C903" opacity="1.000000" stroke="none" 
	d="
M267.545532,383.586151 
	C267.596344,383.594360 267.381592,383.570160 267.381592,383.570160 
	C267.381592,383.570160 267.547638,383.572693 267.522827,383.523865 
	C267.498016,383.475037 267.494720,383.577942 267.545532,383.586151 
z"/>
<path fill="#F9C903" opacity="1.000000" stroke="none" 
	d="
M544.400513,383.503174 
	C544.372559,383.459778 544.505188,383.720947 544.505188,383.720947 
	C544.505188,383.720947 544.610168,383.590179 544.467407,383.556519 
	C544.324646,383.522827 544.428528,383.546570 544.400513,383.503174 
z"/>
</svg>
